<?xml version="1.0" encoding="UTF-8"?>
<svg version="1.1" xmlns="http://www.w3.org/2000/svg" width="4167" height="4167">
<path d="M0 0 C1375.11 0 2750.22 0 4167 0 C4167 1375.11 4167 2750.22 4167 4167 C2791.89 4167 1416.78 4167 0 4167 C0 2791.89 0 1416.78 0 0 Z " fill="#FEFEFE" transform="translate(0,0)"/>
<path d="M0 0 C77.22 0 154.44 0 234 0 C241.59 17.82 249.18 35.64 257 54 C262.30388933 66.40266726 262.30388933 66.40266726 267.61819458 78.80084229 C269.04684703 82.12979318 270.47454187 85.45915374 271.90209961 88.78857422 C274.9340086 95.85936032 277.96690452 102.92972279 281 110 C285.02165334 119.37464847 289.04277351 128.74952514 293.0625 138.125 C293.55902069 139.28304138 294.05554138 140.44108276 294.56710815 141.63421631 C302.38183797 159.86345528 310.16257802 178.10699065 317.92852783 196.35705566 C325.24101625 213.53995149 332.57866657 230.71190127 339.9375 247.875 C340.68216019 249.61182037 340.68216019 249.61182037 341.44186401 251.38372803 C344.96035907 259.58953108 348.48004173 267.79482451 352 276 C356.02165334 285.37464847 360.04277351 294.74952514 364.0625 304.125 C364.55902069 305.28304138 365.05554138 306.44108276 365.56710815 307.63421631 C373.38183797 325.86345528 381.16257802 344.10699065 388.92852783 362.35705566 C396.24101625 379.53995149 403.57866657 396.71190127 410.9375 413.875 C411.68216019 415.61182037 411.68216019 415.61182037 412.44186401 417.38372803 C415.96035907 425.58953108 419.48004173 433.79482451 423 442 C427.02165334 451.37464847 431.04277351 460.74952514 435.0625 470.125 C435.55902069 471.28304138 436.05554138 472.44108276 436.56710815 473.63421631 C444.38183797 491.86345528 452.16257802 510.10699065 459.92852783 528.35705566 C467.24101625 545.53995149 474.57866657 562.71190127 481.9375 579.875 C482.43394012 581.03288025 482.93038025 582.1907605 483.44186401 583.38372803 C486.96035907 591.58953108 490.48004173 599.79482451 494 608 C515.43172011 657.95826973 536.7490537 707.96458834 558 758 C559.62339713 755.5649043 560.7381162 753.49119022 561.8815918 750.8347168 C562.24859695 749.98597992 562.61560211 749.13724304 562.99372864 748.26278687 C563.39154037 747.33430939 563.78935211 746.40583191 564.19921875 745.44921875 C564.62172409 744.4693399 565.04422943 743.48946106 565.47953796 742.47988892 C566.88526394 739.2170721 568.2864711 735.95233618 569.6875 732.6875 C570.67970875 730.38104263 571.67206149 728.07464721 572.66455078 725.76831055 C580.57113907 707.38150818 588.41736919 688.96901677 596.25097656 670.55102539 C603.12164059 654.39832719 610.01982684 638.2576202 616.9375 622.125 C617.43375885 620.96757294 617.9300177 619.81014587 618.4413147 618.61764526 C622.46324346 609.2377112 626.48676473 599.85846048 630.51037598 590.47924805 C634.02850243 582.27815431 637.54599097 574.0767874 641.0625 565.875 C641.55902069 564.71695862 642.05554138 563.55891724 642.56710815 562.36578369 C649.90266798 545.25429342 657.21022807 528.1310419 664.5 511 C672.2881166 492.69784281 680.09943199 474.40582348 687.9375 456.125 C688.43394012 454.96711975 688.93038025 453.8092395 689.44186401 452.61627197 C693.46360845 443.23679516 697.48695905 433.85800751 701.51037598 424.47924805 C705.02850243 416.27815431 708.54599097 408.0767874 712.0625 399.875 C712.55902069 398.71695862 713.05554138 397.55891724 713.56710815 396.36578369 C720.90266798 379.25429342 728.21022807 362.1310419 735.5 345 C743.2881166 326.69784281 751.09943199 308.40582348 758.9375 290.125 C759.43394012 288.96711975 759.93038025 287.8092395 760.44186401 286.61627197 C764.46360845 277.23679516 768.48695905 267.85800751 772.51037598 258.47924805 C776.02850243 250.27815431 779.54599097 242.0767874 783.0625 233.875 C783.55902069 232.71695862 784.05554138 231.55891724 784.56710815 230.36578369 C791.90266798 213.25429342 799.21022807 196.1310419 806.5 179 C814.2881166 160.69784281 822.09942881 142.40582212 829.9375 124.125 C830.43194611 122.97177246 830.92639221 121.81854492 831.43582153 120.63037109 C834.95633853 112.41987167 838.47806298 104.20989038 842 96 C845.64677741 87.49897322 849.29302863 78.99772129 852.93826294 70.49603271 C854.35602047 67.19000003 855.77453384 63.88429252 857.19311523 60.57861328 C865.84316623 40.40569257 874.41457783 20.20099334 883 0 C959.56 0 1036.12 0 1115 0 C1115 337.59 1115 675.18 1115 1023 C1047.35 1023 979.7 1023 910 1023 C909.67 804.87 909.34 586.74 909 362 C899.64155533 384.57036656 890.28776819 407.13788473 881.0274353 429.74787903 C876.2095933 441.50877102 871.35598359 453.25481664 866.5 465 C860.64649964 479.15845289 854.80834321 493.32296078 849 507.5 C842.78938014 522.6589185 836.54287194 537.80278917 830.28375244 552.94174194 C824.79295125 566.22335814 819.32236183 579.51301174 813.875 592.8125 C808.09625675 606.92070361 802.27174671 621.00940209 796.42468262 635.0894165 C790.96464656 648.23936015 785.54180802 661.40406237 780.14501953 674.58007812 C774.62173836 688.06378486 769.06727918 701.53440367 763.5 715 C757.64649964 729.15845289 751.80834321 743.32296078 746 757.5 C739.78869456 772.66059187 733.54125148 787.806031 727.28173828 802.94677734 C721.83479931 816.12316126 716.40538055 829.30651448 711 842.5 C704.78869456 857.66059187 698.54125148 872.806031 692.28173828 887.94677734 C686.8347991 901.12316175 681.40550803 914.30656643 676 927.5 C668.1395007 946.68401231 660.22754018 965.84662989 652.30386353 985.00462341 C650.22077117 990.04245251 648.14168018 995.08189222 646.06872559 1000.12390137 C644.93089429 1002.8913294 643.79140368 1005.65807253 642.6517334 1008.42474365 C641.89533172 1010.26308623 641.14147806 1012.10247656 640.38769531 1013.94189453 C639.94780273 1015.00907715 639.50791016 1016.07625977 639.0546875 1017.17578125 C638.67812012 1018.09270752 638.30155273 1019.00963379 637.91357422 1019.9543457 C637 1022 637 1022 636 1023 C634.00038545 1023.09672695 631.99729807 1023.1218703 629.99534607 1023.12025452 C628.03699326 1023.12231651 628.03699326 1023.12231651 626.03907776 1023.12442017 C624.57870461 1023.12088055 623.11833169 1023.11724573 621.65795898 1023.11352539 C620.13073732 1023.11324353 618.60351553 1023.11340123 617.07629395 1023.1139679 C612.91738312 1023.11425591 608.75850089 1023.10835855 604.59959674 1023.10139394 C600.25805476 1023.09516106 595.91651219 1023.09455665 591.57496643 1023.09336853 C583.34786418 1023.09025502 575.12077514 1023.08204137 566.89367872 1023.07201904 C557.52986936 1023.06085851 548.16605938 1023.05534761 538.80224502 1023.05032361 C519.53482251 1023.03985877 500.26741231 1023.02225895 481 1023 C480.20212162 1021.41869459 479.40591936 1019.8365434 478.6104126 1018.25404358 C478.16684544 1017.37307542 477.72327827 1016.49210726 477.26626968 1015.58444309 C475.55567428 1012.09313588 474.06044761 1008.53870495 472.609375 1004.93359375 C472.30784012 1004.19429123 472.00630524 1003.45498871 471.69563293 1002.69328308 C471.04817807 1001.10482299 470.40245177 999.51565739 469.7583313 997.92584229 C467.99679174 993.57874586 466.22171614 989.23716828 464.44921875 984.89453125 C464.08211288 983.99402039 463.71500702 983.09350952 463.33677673 982.16571045 C459.44996696 972.63637365 455.50963431 963.12947307 451.5625 953.625 C450.84974019 951.9077281 450.13701247 950.19044288 449.42431641 948.47314453 C447.99398626 945.02704225 446.5632943 941.5810905 445.13232422 938.13525391 C441.62753551 929.69530973 438.12589546 921.25405972 434.625 912.8125 C434.27768829 911.97511292 433.93037659 911.13772583 433.57254028 910.27496338 C427.46550216 895.54928503 421.37798233 880.81558465 415.29455566 866.08013916 C409.66510089 852.44493861 404.02662513 838.8135266 398.375 825.1875 C398.02725525 824.34907562 397.6795105 823.51065125 397.32122803 822.64682007 C394.88128184 816.76435453 392.44071722 810.88214566 390 805 C387.20789776 798.27101397 384.41608766 791.54190693 381.625 784.8125 C381.27741638 783.97447845 380.92983276 783.13645691 380.57171631 782.27304077 C374.46495989 767.54800044 368.37771626 752.81494015 362.29455566 738.08013916 C356.66510089 724.44493861 351.02662513 710.8135266 345.375 697.1875 C345.02725525 696.34907562 344.6795105 695.51065125 344.32122803 694.64682007 C341.88128184 688.76435453 339.44071722 682.88214566 337 677 C334.20789776 670.27101397 331.41608766 663.54190693 328.625 656.8125 C328.27741638 655.97447845 327.92983276 655.13645691 327.57171631 654.27304077 C321.46495989 639.54800044 315.37771626 624.81494015 309.29455566 610.08013916 C303.66510089 596.44493861 298.02662513 582.8135266 292.375 569.1875 C292.02725525 568.34907562 291.6795105 567.51065125 291.32122803 566.64682007 C288.88128184 560.76435453 286.44071722 554.88214566 284 549 C281.20789776 542.27101397 278.41608766 535.54190693 275.625 528.8125 C275.27741638 527.97447845 274.92983276 527.13645691 274.57171631 526.27304077 C268.46495989 511.54800044 262.37771626 496.81494015 256.29455566 482.08013916 C250.66510066 468.44493806 245.02635281 454.8136399 239.375 441.1875 C239.03091095 440.35771637 238.6868219 439.52793274 238.33230591 438.67300415 C234.75522623 430.04689368 231.17586546 421.42173751 227.59155273 412.79862976 C226.07127224 409.1406666 224.55197537 405.48229528 223.03277588 401.82388306 C222.32066244 400.10979089 221.60808222 398.39589255 220.8949585 396.68222046 C220.56078918 395.87918488 220.22661987 395.07614929 219.88232422 394.2487793 C219.59372528 393.55568161 219.30512634 392.86258392 219.00778198 392.14848328 C214.58071287 381.46359438 210.29694274 370.74235684 206 360 C205.67 578.79 205.34 797.58 205 1023 C137.35 1023 69.7 1023 0 1023 C0 685.41 0 347.82 0 0 Z " fill="#1A242F" transform="translate(402,1572)"/>
<path d="M0 0 C72.6 0 145.2 0 220 0 C224.49275809 8.98551618 224.49275809 8.98551618 225.640625 12.63671875 C225.90230469 13.45011719 226.16398437 14.26351563 226.43359375 15.1015625 C226.70300781 15.95492188 226.97242187 16.80828125 227.25 17.6875 C229.63307555 25.04485553 232.19456269 32.29327879 235 39.5 C238.03185797 47.30420007 240.76156124 55.16561256 243.35546875 63.125 C245.39406129 69.32379724 247.63771109 75.41778487 250 81.5 C253.03120073 89.30447085 255.76154898 97.16557496 258.35546875 105.125 C260.39406129 111.32379724 262.63771109 117.41778487 265 123.5 C268.03120073 131.30447085 270.76154898 139.16557496 273.35546875 147.125 C275.39406129 153.32379724 277.63771109 159.41778487 280 165.5 C283.03120073 173.30447085 285.76154898 181.16557496 288.35546875 189.125 C290.39406129 195.32379724 292.63771109 201.41778487 295 207.5 C298.03120073 215.30447085 300.76154898 223.16557496 303.35546875 231.125 C305.39406129 237.32379724 307.63771109 243.41778487 310 249.5 C313.03120073 257.30447085 315.76154898 265.16557496 318.35546875 273.125 C320.39406129 279.32379724 322.63771109 285.41778487 325 291.5 C328.03120073 299.30447085 330.76154898 307.16557496 333.35546875 315.125 C335.39406129 321.32379724 337.63771109 327.41778487 340 333.5 C343.03120073 341.30447085 345.76154898 349.16557496 348.35546875 357.125 C350.39406129 363.32379724 352.63771109 369.41778487 355 375.5 C358.03120073 383.30447085 360.76154898 391.16557496 363.35546875 399.125 C365.39406129 405.32379724 367.63771109 411.41778487 370 417.5 C373.03120073 425.30447085 375.76154898 433.16557496 378.35546875 441.125 C380.39406129 447.32379724 382.63771109 453.41778487 385 459.5 C388.03120073 467.30447085 390.76154898 475.16557496 393.35546875 483.125 C395.39406129 489.32379724 397.63771109 495.41778487 400 501.5 C403.03120073 509.30447085 405.76154898 517.16557496 408.35546875 525.125 C410.39406351 531.32380398 412.63781939 537.41773856 415 543.5 C418.00468183 551.23992194 420.76560335 559.02569937 423.30273438 566.93164062 C425.09203181 572.45512401 427.05360814 577.90186233 429.07421875 583.34375 C433.4553463 595.15012635 437.64382373 607.02428854 441.84259033 618.89642334 C444.27947715 625.78639222 446.7215599 632.67452029 449.1640625 639.5625 C449.53487253 640.60830042 449.53487253 640.60830042 449.91317368 641.67522812 C454.78712944 655.41925253 459.69757235 669.15005358 464.625 682.875 C467.7718182 691.64120122 467.7718182 691.64120122 469.29296875 695.87890625 C469.67796036 696.951371 470.06295197 698.02383575 470.45960999 699.12879944 C474.96577959 711.6851949 479.45216836 724.24864892 483.9375 736.8125 C484.35195374 737.97336121 484.76640747 739.13422241 485.19342041 740.33026123 C487.29043226 746.20399315 489.38722059 752.07780482 491.48388672 757.95166016 C495.23826007 768.46925671 498.99471197 778.98611092 502.75100708 789.50302124 C504.83408986 795.33531709 506.91703812 801.16766097 509 807 C509.83333269 809.33333356 510.66666602 811.6666669 511.5 814 C519.83333333 837.33333333 528.16666667 860.66666667 536.5 884 C537.11868958 885.73232628 537.11868958 885.73232628 537.74987793 887.49964905 C538.5836259 889.83414946 539.41736612 892.16865264 540.25109863 894.50315857 C542.32802479 900.31865822 544.40508323 906.13411056 546.48242188 911.94946289 C550.30895518 922.66197955 554.13433273 933.37490371 557.95501709 944.08950806 C559.70703296 949.00259468 561.45972389 953.91544034 563.21252441 958.82824707 C564.06494128 961.21787535 564.91707742 963.60760379 565.7689209 965.99743652 C569.77979569 977.24880817 573.79668152 988.49697886 577.921875 999.70703125 C578.21368652 1000.50149155 578.50549805 1001.29595184 578.80615234 1002.11448669 C580.11251376 1005.66883607 581.42528089 1009.22051526 582.75195312 1012.76733398 C583.18958984 1013.95270752 583.62722656 1015.13808105 584.078125 1016.359375 C584.45356445 1017.36452148 584.82900391 1018.36966797 585.21582031 1019.40527344 C586 1022 586 1022 586 1026 C513.4 1026 440.8 1026 366 1026 C361.38 1011.81 356.76 997.62 352 983 C348.85877611 973.50587833 345.71732677 964.01224097 342.55052264 954.52668474 C341.08175153 950.12600247 339.61517337 945.72459067 338.14866579 941.32315367 C335.9946348 934.85902447 333.83953117 928.39525376 331.68364906 921.93174171 C328.47812417 912.32129675 325.27437911 902.71025908 322.07095385 893.09911408 C316.67768232 876.91799682 311.28303402 860.73733891 305.8875618 844.55695534 C300.55629437 828.5690989 295.22566299 812.58103062 289.89585495 796.59268761 C289.56270773 795.59331469 289.22956051 794.59394177 288.88631792 793.56428483 C287.19398369 788.48762052 285.50166056 783.41095251 283.80934171 778.33428308 C271.86660996 742.50818036 259.92249149 706.6825401 247.97753906 670.85717773 C236.38340377 636.08397718 224.7899081 601.31056349 213.19726562 566.53686523 C212.65992646 564.92504504 212.65992646 564.92504504 212.11173196 563.28066281 C208.51381554 552.48823222 204.91591198 541.69579735 201.31801785 530.90335933 C193.9906814 508.92388524 186.66325916 486.94443975 179.33578491 464.9650116 C178.99898414 463.95474657 178.66218337 462.94448155 178.31517651 461.90360244 C155.87822341 394.60192184 133.4392712 327.30090774 111 260 C109.10611753 262.84082371 108.1932334 265.04691254 107.12409824 268.25741112 C106.75577191 269.35616068 106.38744558 270.45491025 106.00795785 271.58695525 C105.60599398 272.80129959 105.20403011 274.01564392 104.78988552 275.26678658 C104.35506233 276.56964474 103.91984373 277.872371 103.48426428 279.17497653 C102.28115469 282.77673227 101.08370205 286.38034756 99.88711036 289.98427306 C98.58708777 293.89641067 97.28185312 297.80680907 95.9772597 301.71742427 C93.6891163 308.57870875 91.40432533 315.44110244 89.12169266 322.30422211 C85.72743513 332.5095658 82.3280291 342.7131891 78.92751868 352.91645071 C73.20797329 370.07844641 67.49253983 387.24180882 61.77934074 404.40591812 C56.12020125 421.40751374 50.45895006 438.40840399 44.7949543 455.40838242 C44.44310482 456.46442732 44.09125534 457.52047222 43.72874376 458.60851848 C41.94193771 463.97140727 40.15508731 469.33428127 38.36821563 474.69714819 C34.73431247 485.60347384 31.10070075 496.50989659 27.4671793 507.41634941 C26.92152432 509.05419828 26.92152432 509.05419828 26.364846 510.72513501 C17.70230881 536.7270262 9.04273798 562.72990514 0.38354492 588.73291016 C0.00455141 589.87100087 -0.3744421 591.00909158 -0.76492027 592.1816699 C-3.83578783 601.40326867 -6.90664791 610.62486993 -9.97749577 619.84647526 C-18.82235331 646.40713263 -27.66793872 672.96754757 -36.51391602 699.52783203 C-36.8928601 700.66562499 -37.27180419 701.80341796 -37.66223143 702.97568949 C-46.3085465 728.93651575 -54.95548522 754.89713413 -63.60397243 780.85723686 C-63.96713326 781.94733572 -64.33029408 783.03743457 -64.70445978 784.16056673 C-68.32928657 795.04116746 -71.95419482 805.92174106 -75.57923853 816.80226953 C-83.37798778 840.21022681 -91.17491436 863.61878911 -98.96825568 887.02854748 C-104.64770394 904.08851021 -110.32912331 921.14781533 -116.01265199 938.20641913 C-119.39373489 948.35469055 -122.77308802 958.50353437 -126.15005671 968.65317561 C-128.40167935 975.42000317 -130.65543853 982.18611655 -132.91098232 988.9516381 C-134.19883401 992.81477743 -135.48569616 996.67823914 -136.76994885 1000.54257657 C-137.93572419 1004.0503598 -139.10419875 1007.55723106 -140.27493518 1011.06336152 C-140.89893497 1012.93454266 -141.51995568 1014.80671643 -142.14089343 1016.67891592 C-142.50671624 1017.77265844 -142.87253905 1018.86640097 -143.24944741 1019.99328721 C-143.72397116 1021.41833323 -143.72397116 1021.41833323 -144.20808125 1022.87216807 C-145 1025 -145 1025 -146 1026 C-148.81947145 1026.09791283 -151.61444625 1026.12992699 -154.43434143 1026.12025452 C-155.32949382 1026.12110894 -156.22464621 1026.12196337 -157.14692444 1026.12284368 C-160.17031648 1026.12450124 -163.19365401 1026.11897263 -166.21704102 1026.11352539 C-168.37479654 1026.11324355 -170.53255215 1026.11340119 -172.69030762 1026.1139679 C-178.56816845 1026.114256 -184.44600906 1026.10835719 -190.32386518 1026.10139394 C-196.45914944 1026.09516255 -202.59443412 1026.09455677 -208.72972107 1026.09336853 C-220.35675432 1026.09025458 -231.98377823 1026.08204033 -243.61080736 1026.07201904 C-256.84395117 1026.06085988 -270.07709543 1026.05534795 -283.31024277 1026.05032361 C-310.54016704 1026.03985777 -337.770083 1026.0222571 -365 1026 C-364.39006096 1021.46487037 -363.61409625 1017.3929362 -362.07666016 1013.07958984 C-361.67683426 1011.94774765 -361.27700836 1010.81590546 -360.86506653 1009.64976501 C-360.20869453 1007.82379539 -360.20869453 1007.82379539 -359.5390625 1005.9609375 C-359.07660533 1004.65978999 -358.61472039 1003.35843899 -358.15336609 1002.05690002 C-356.91056595 998.55611865 -355.65959877 995.0583074 -354.40701675 991.56101608 C-353.08983098 987.87901148 -351.78015712 984.19433591 -350.46948242 980.51000977 C-347.5654978 972.35178826 -344.65019722 964.19763864 -341.73175812 956.04457855 C-340.61139772 952.91422061 -339.49203862 949.78350492 -338.37255859 946.65283203 C-334.48025488 935.77091337 -330.57901853 924.8922234 -326.671875 914.015625 C-321.78535499 900.41221975 -316.92211721 886.80053527 -312.0625 873.1875 C-311.64795563 872.02636688 -311.23341125 870.86523376 -310.80630493 869.66891479 C-308.70938719 863.79545662 -306.61268051 857.92192314 -304.51611328 852.04833984 C-300.76173993 841.53074329 -297.00528803 831.01388908 -293.24899292 820.49697876 C-291.16591014 814.66468291 -289.08296188 808.83233903 -287 803 C-286.16666731 800.66666644 -285.33333398 798.3333331 -284.5 796 C-283.88125 794.2675 -283.88125 794.2675 -283.25 792.5 C-242 677 -200.75 561.5 -38.25027466 106.5007782 C-37.41601807 104.16485363 -36.58176922 101.8289263 -35.74752808 99.49299622 C-33.67838374 93.69928617 -31.60910968 87.90562252 -29.53955078 82.11206055 C-25.62010257 71.13943947 -21.70205303 60.16632354 -17.78826904 49.19168091 C-16.15831901 44.62117005 -14.52775134 40.05087961 -12.89704514 35.4806385 C-11.78191298 32.35519897 -10.66725429 29.22959177 -9.55322266 26.10375977 C-8.32540008 22.65871098 -7.09641816 19.21407782 -5.8671875 15.76953125 C-5.32177811 14.23773979 -5.32177811 14.23773979 -4.76535034 12.67500305 C-4.42883453 11.73271347 -4.09231873 10.79042389 -3.74560547 9.81958008 C-3.45507294 9.00475662 -3.16454041 8.18993317 -2.86520386 7.35041809 C-1.95678527 4.88260259 -0.97664716 2.44161791 0 0 Z " fill="#1A242F" transform="translate(2752,1570)"/>
<path d="M0 0 C76.56 0 153.12 0 232 0 C241.19842761 18.39685522 241.19842761 18.39685522 244.375 25.1171875 C244.74179367 25.88969849 245.10858734 26.66220947 245.48649597 27.45812988 C246.65936527 29.92961743 247.8297781 32.40225799 249 34.875 C249.83495742 36.63627072 250.67000132 38.39750044 251.50512695 40.15869141 C258.38749498 54.67962817 265.2358907 69.21652468 272.0680542 83.76113892 C274.39512358 88.71462269 276.72597064 93.66631682 279.05859375 98.6171875 C285.37520069 112.02552411 291.67899222 125.43943607 297.9375 138.875 C304.11977089 152.14638111 310.36681214 165.38671319 316.6239624 178.6229248 C316.98137512 179.37900024 317.33878784 180.13507568 317.70703125 180.9140625 C318.0646051 181.67046021 318.42217896 182.42685791 318.79058838 183.20617676 C322.55681369 191.17492069 326.31081109 199.1494042 330.0625 207.125 C330.39054626 207.82234253 330.71859253 208.51968506 331.05657959 209.23815918 C332.70990339 212.7527797 334.36305602 216.26748068 336.01611328 219.78222656 C338.67604303 225.43758745 341.33728158 231.0923323 343.99853516 236.74707031 C345.33040139 239.57707294 346.66209998 242.40715436 347.99365234 245.23730469 C351.01966902 251.66872477 354.04650312 258.09975469 357.07702637 264.52905273 C363.54580259 278.25283983 370.00394073 291.98048545 376.375 305.75 C382.21824337 318.37404254 388.16907779 330.94577112 394.13183594 343.51367188 C400.79823881 357.56514024 407.4266136 371.63422666 414.04231262 385.70962524 C416.37988631 390.68259069 418.72051754 395.65410949 421.0625 400.625 C427.33769282 413.94548793 433.60560549 427.26932749 439.83782959 440.60998535 C440.43543043 441.88915905 441.03328089 443.16821617 441.63140869 444.44714355 C444.82141607 451.26973961 447.96845111 458.10543372 451 465 C453.40600963 462.00998181 455.04944968 459.02492496 456.64453125 455.5390625 C457.14911865 454.44352051 457.65370605 453.34797852 458.17358398 452.21923828 C458.98484741 450.44009033 458.98484741 450.44009033 459.8125 448.625 C460.38885217 447.37067714 460.96576768 446.116613 461.54321289 444.86279297 C462.44669323 442.90078263 463.3497815 440.93860059 464.25114441 438.97561646 C467.16369863 432.63290958 470.11231972 426.30731275 473.06814575 419.98468018 C474.53734921 416.84183186 476.00486532 413.69819568 477.47265625 410.5546875 C477.76500656 409.92871674 478.05735687 409.30274597 478.35856628 408.6578064 C480.38567763 404.31712009 482.41021684 399.97524065 484.43359375 395.6328125 C490.61594483 382.36725975 496.82392201 369.11421059 503.0625 355.875 C509.01569745 343.24106313 514.92063885 330.58583697 520.79296875 317.9140625 C524.16207898 310.64524087 527.54803776 303.38434657 530.9375 296.125 C531.22820374 295.50234253 531.51890747 294.87968506 531.81842041 294.23815918 C533.29007881 291.08610518 534.76193013 287.93414132 536.23388672 284.78222656 C538.86557029 279.14672051 541.4954426 273.51036928 544.12545776 267.87408447 C545.00159616 265.99657954 545.87785508 264.11913091 546.75415039 262.24169922 C549.36199528 256.65432223 551.96932488 251.06670833 554.57365417 245.47769165 C561.04184982 231.59679921 567.53470454 217.72797402 574.0625 203.875 C580.01569745 191.24106313 585.92063885 178.58583697 591.79296875 165.9140625 C595.16207898 158.64524087 598.54803776 151.38434657 601.9375 144.125 C602.22820374 143.50234253 602.51890747 142.87968506 602.81842041 142.23815918 C604.29007881 139.08610518 605.76193013 135.93414132 607.23388672 132.78222656 C609.86557029 127.14672051 612.4954426 121.51036928 615.12545776 115.87408447 C616.00159616 113.99657954 616.87785508 112.11913091 617.75415039 110.24169922 C620.36199528 104.65432223 622.96932488 99.06670833 625.57365417 93.47769165 C631.70483372 80.3200433 637.85471432 67.17158872 644.04220581 54.04031372 C649.49120137 42.47621292 654.92437395 30.90510538 660.3125 19.3125 C660.84560791 18.16700684 661.37871582 17.02151367 661.92797852 15.84130859 C662.42225342 14.77605957 662.91652832 13.71081055 663.42578125 12.61328125 C664.06640503 11.23329956 664.06640503 11.23329956 664.7199707 9.82543945 C666.19416879 6.57140655 667.59276554 3.28354706 669 0 C744.57 0 820.14 0 898 0 C896.40497461 4.78507616 894.60175402 9.00257352 892.2890625 13.43359375 C891.9250383 14.13935043 891.5610141 14.84510712 891.18595886 15.57225037 C890.00313136 17.86284527 888.81416627 20.15019043 887.625 22.4375 C886.80003313 24.03188729 885.97540998 25.62645248 885.15112305 27.22119141 C882.77360226 31.81735121 880.388314 36.409441 878 41 C877.4126709 42.12905762 876.8253418 43.25811523 876.22021484 44.42138672 C873.81182544 49.0464944 871.39748836 53.66846037 868.98046875 58.2890625 C865.50855752 64.93230692 862.06650967 71.59097518 858.625 78.25 C857.34766707 80.72135976 856.07032983 83.19271729 854.79296875 85.6640625 C854.31851318 86.58203613 854.31851318 86.58203613 853.83447266 87.51855469 C848.81090839 97.23660633 843.77122834 106.94631186 838.73388672 116.65722656 C835.82195804 122.27115609 832.91103226 127.88560561 830 133.5 C828.83333808 135.75000246 827.66667142 138.00000246 826.5 140.25 C825.9225 141.36375 825.345 142.4775 824.75 143.625 C823 147 821.25 150.375 819.5 153.75 C818.6335083 155.4211084 818.6335083 155.4211084 817.74951172 157.12597656 C816.58451067 159.37274107 815.4194717 161.61948591 814.25439453 163.86621094 C811.31193025 169.54055217 808.3701554 175.21524895 805.4296875 180.890625 C799.98770799 191.39263836 794.53975513 201.89133505 789.0625 212.375 C783.59641583 222.83854224 778.17140232 233.3231599 772.7510376 243.8104248 C772.43487488 244.42212524 772.11871216 245.03382568 771.79296875 245.6640625 C771.31848297 246.58209656 771.31848297 246.58209656 770.83441162 247.51867676 C765.81085965 257.23668356 760.7712074 266.94635223 755.73388672 276.65722656 C752.82195804 282.27115609 749.91103226 287.88560561 747 293.5 C745.83333808 295.75000246 744.66667142 298.00000246 743.5 300.25 C742.63375 301.920625 742.63375 301.920625 741.75 303.625 C726 334 710.25 364.375 694.5 394.75 C693.6335083 396.4211084 693.6335083 396.4211084 692.74951172 398.12597656 C691.58451067 400.37274107 690.4194717 402.61948591 689.25439453 404.86621094 C686.31193025 410.54055217 683.3701554 416.21524895 680.4296875 421.890625 C674.98770799 432.39263836 669.53975513 442.89133505 664.0625 453.375 C658.59641583 463.83854224 653.17140232 474.3231599 647.7510376 484.8104248 C647.27679352 485.72797546 647.27679352 485.72797546 646.79296875 486.6640625 C646.31848297 487.58209656 646.31848297 487.58209656 645.83441162 488.51867676 C640.81085965 498.23668356 635.7712074 507.94635223 630.73388672 517.65722656 C627.82195804 523.27115609 624.91103226 528.88560561 622 534.5 C620.83333808 536.75000246 619.66667142 539.00000246 618.5 541.25 C617.9225 542.36375 617.345 543.4775 616.75 544.625 C605.66666667 566 594.58333333 587.375 583.5 608.75 C582.9217749 609.8652002 582.3435498 610.98040039 581.74780273 612.12939453 C580.58863153 614.3648349 579.42929087 616.60018741 578.26977539 618.83544922 C575.55823505 624.06313108 572.84830391 629.29162593 570.1446228 634.52337646 C568.88038566 636.96947119 567.61515534 639.41505158 566.34985352 641.8605957 C565.46729817 643.5673732 564.58616322 645.27488493 563.70507812 646.98242188 C563.16173828 648.03236328 562.61839844 649.08230469 562.05859375 650.1640625 C561.58736084 651.07623535 561.11612793 651.9884082 560.63061523 652.92822266 C559 656 559 656 557.76948339 657.75286812 C553.15004178 664.76830451 553.29442909 671.50623436 553.36076355 679.6733551 C553.35444509 681.15781168 553.34593808 682.64226026 553.33544332 684.12669319 C553.31301383 688.18830694 553.32147398 692.24935002 553.3351289 696.31098092 C553.34441166 700.69741636 553.32483397 705.08373579 553.30880737 709.47013855 C553.28499003 717.06403945 553.27935294 724.65777806 553.28615379 732.25171089 C553.29596016 743.23115069 553.27820863 754.21041076 553.25378648 765.18982147 C553.21490672 783.00423718 553.19823452 800.81860142 553.19555664 818.63305664 C553.1929081 835.93549243 553.17972582 853.23786779 553.15258789 870.5402832 C553.15091037 871.61813731 553.14923286 872.69599141 553.14750451 873.80650777 C553.13430262 882.23635735 553.12049086 890.66620591 553.10648644 899.0960542 C553.03802906 940.39738157 553.02275333 981.69857331 553 1023 C485.02 1023 417.04 1023 347 1023 C347.14824219 997.58613281 347.29648438 972.17226562 347.44921875 945.98828125 C347.50072468 929.84174294 347.54749486 913.69539688 347.57226562 897.54882812 C347.58553811 889.05867219 347.6000003 880.56851954 347.61645508 872.07836914 C347.61846737 871.01450912 347.62047966 869.9506491 347.62255293 868.8545509 C347.65661889 851.7586409 347.75763505 834.66376524 347.88409772 817.56831739 C348.01271048 799.97711349 348.06771422 782.38674715 348.05671436 764.79507226 C348.05259789 754.93308339 348.08111101 745.07355439 348.194067 735.21215248 C350.4521764 680.19072658 350.4521764 680.19072658 329.17743874 630.96759605 C326.1528093 626.84537749 323.91911956 622.45790148 321.6875 617.875 C320.94384842 616.45827714 320.19583754 615.04382446 319.44140625 613.6328125 C316.30034585 607.69040926 313.21575599 601.71867176 310.125 595.75 C305.71981664 587.24397195 301.30794207 578.74159879 296.875 570.25 C296.38644531 569.31414063 295.89789062 568.37828125 295.39453125 567.4140625 C293.92995952 564.60923283 292.46504982 561.80457998 291 559 C284.60598516 546.75978418 278.22583918 534.51268421 271.875 522.25 C267.96218189 514.69512508 264.03709422 507.14756534 260.0625 499.625 C255.49124565 490.97315844 251.00071141 482.28008179 246.51150513 473.58551025 C242.70219163 466.20885697 238.88028455 458.83965687 235 451.5 C230.44825798 442.89026424 225.9791409 434.23836573 221.51123047 425.58496094 C217.70200789 418.20849121 213.8801888 410.83947577 210 403.5 C205.78403136 395.52538813 201.63835492 387.51505225 197.5 379.5 C193.34020812 371.44362426 189.17323439 363.39181553 184.9375 355.375 C180.35058423 346.69351665 175.83212296 337.97711928 171.31665039 329.25830078 C167.513749 321.91643802 163.70136592 314.57966136 159.875 307.25 C159.14216797 305.84621094 159.14216797 305.84621094 158.39453125 304.4140625 C156.92995952 301.60923283 155.46504982 298.80457998 154 296 C147.60598516 283.75978418 141.22583918 271.51268421 134.875 259.25 C130.96218189 251.69512508 127.03709422 244.14756534 123.0625 236.625 C118.49124565 227.97315844 114.00071141 219.28008179 109.51150513 210.58551025 C105.70219163 203.20885697 101.88028455 195.83965687 98 188.5 C93.44825798 179.89026424 88.9791409 171.23836573 84.51123047 162.58496094 C80.70200789 155.20849121 76.8801888 147.83947577 73 140.5 C68.44825798 131.89026424 63.9791409 123.23836573 59.51123047 114.58496094 C55.70200789 107.20849121 51.8801888 99.83947577 48 92.5 C43.44825798 83.89026424 38.9791409 75.23836573 34.51123047 66.58496094 C30.70200747 59.20849039 26.88010719 51.83951954 23 44.5 C18.64117142 36.25313751 14.34773124 27.97275916 10.0625 19.6875 C9.73290283 19.05054199 9.40330566 18.41358398 9.0637207 17.75732422 C8.11615871 15.92573454 7.16926429 14.09380161 6.22265625 12.26171875 C5.39906616 10.66783325 5.39906616 10.66783325 4.55883789 9.04174805 C3.01942228 6.03789854 1.50949742 3.01899484 0 0 Z " fill="#1A242F" transform="translate(1635,1572)"/>
<path d="M0 0 C0.7390155 0.00149048 1.47803101 0.00298096 2.23944092 0.0045166 C14.48126821 0.04870259 26.36070695 0.80974487 38.375 3.3125 C39.08172852 3.45703613 39.78845703 3.60157227 40.51660156 3.75048828 C74.94464097 11.03117202 104.79936688 28.46383889 130.375 52.3125 C131.48488281 53.34117187 131.48488281 53.34117187 132.6171875 54.390625 C156.84028108 77.6654836 174.48311717 110.32747634 180.95046997 143.17431641 C181.34376373 145.15517573 181.75720396 147.13200617 182.17236328 149.10839844 C184.42909938 160.32646788 184.9352312 171.26473152 184.875 182.6875 C184.87290527 183.60359039 184.87081055 184.51968079 184.86865234 185.46353149 C184.69632988 222.18217838 174.49682111 258.51663629 152.375 288.3125 C151.60671875 289.36308594 150.8384375 290.41367188 150.046875 291.49609375 C144.30045315 299.22801681 138.00810197 306.33560921 131.375 313.3125 C130.75625 313.99570313 130.1375 314.67890625 129.5 315.3828125 C100.85829658 345.94248713 54.78757581 365.25875296 13.36437988 366.63035583 C9.28430474 366.72581214 5.20609816 366.7537601 1.125 366.75 C-0.02838867 366.75046829 -0.02838867 366.75046829 -1.20507812 366.75094604 C-16.18717816 366.70460841 -30.68314293 365.2882027 -45.1875 361.3125 C-46.28739258 361.0127124 -47.38728516 360.7129248 -48.52050781 360.40405273 C-75.84349765 352.61735324 -101.58408137 338.39178188 -122.109375 318.6875 C-124.58334201 316.28623383 -124.58334201 316.28623383 -127.26171875 314.20703125 C-130.88276484 311.30420918 -133.66254184 307.87069929 -136.625 304.3125 C-137.273479 303.54848877 -137.273479 303.54848877 -137.93505859 302.76904297 C-171.18722601 263.45855698 -185.06998503 215.15241301 -181.21362305 164.12768555 C-179.34225774 144.39387107 -173.80501372 125.31165232 -165.625 107.3125 C-165.30273438 106.59771484 -164.98046875 105.88292969 -164.6484375 105.14648438 C-159.9443272 94.8681946 -154.21858939 85.48163226 -147.625 76.3125 C-147.02510254 75.46703613 -147.02510254 75.46703613 -146.41308594 74.60449219 C-132.40243877 55.08519089 -114.22452967 38.59090387 -93.625 26.3125 C-93.07070312 25.97395996 -92.51640625 25.63541992 -91.9453125 25.28662109 C-63.97492248 8.28605926 -32.67667638 -0.16421831 0 0 Z " fill="#19EA2E" transform="translate(3579.625,2229.6875)"/>
</svg>
