<?xml version="1.0" encoding="UTF-8"?>
<svg id="Layer_1" xmlns="http://www.w3.org/2000/svg" version="1.1" viewBox="0 0 109.2 14.33">
  <!-- Generator: Adobe Illustrator 30.1.0, SVG Export Plug-In . SVG Version: 2.1.1 Build 136)  -->
  <defs>
    <style>
      .st0 {
        fill: #1a242f;
      }

      .st1 {
        fill: #19ea2e;
      }
    </style>
  </defs>
  <path class="st0" d="M15.22.2v13.96h-2.8V5.08l-3.74,9.08h-2.12L2.8,5.08v9.08H0V.2h3.18l4.44,10.38L12.06.2h3.16ZM29.09.2l-4.72,9.1v4.86h-2.8v-4.86L16.83.2h3.16l3,6.38L25.97.2h3.12ZM40.08,7.19c0-1.37.31-2.6.92-3.68.63-1.09,1.47-1.94,2.54-2.54,1.08-.61,2.29-.92,3.62-.92,1.56,0,2.93.4,4.1,1.2,1.17.8,1.99,1.91,2.46,3.32h-3.22c-.32-.67-.77-1.17-1.36-1.5-.57-.33-1.24-.5-2-.5-.81,0-1.54.19-2.18.58-.63.37-1.12.91-1.48,1.6-.35.69-.52,1.51-.52,2.44s.17,1.73.52,2.44c.36.69.85,1.23,1.48,1.62.64.37,1.37.56,2.18.56.76,0,1.43-.17,2-.5.59-.35,1.04-.85,1.36-1.52h3.22c-.47,1.43-1.29,2.54-2.46,3.34-1.16.79-2.53,1.18-4.1,1.18-1.33,0-2.54-.3-3.62-.9-1.07-.61-1.91-1.46-2.54-2.54-.61-1.08-.92-2.31-.92-3.68ZM55.13,7.19c0-1.37.31-2.6.92-3.68.63-1.09,1.47-1.94,2.54-2.54,1.08-.61,2.29-.92,3.62-.92,1.56,0,2.93.4,4.1,1.2,1.17.8,1.99,1.91,2.46,3.32h-3.22c-.32-.67-.77-1.17-1.36-1.5-.57-.33-1.24-.5-2-.5-.81,0-1.54.19-2.18.58-.63.37-1.12.91-1.48,1.6-.35.69-.52,1.51-.52,2.44s.17,1.73.52,2.44c.36.69.85,1.23,1.48,1.62.64.37,1.37.56,2.18.56.76,0,1.43-.17,2-.5.59-.35,1.04-.85,1.36-1.52h3.22c-.47,1.43-1.29,2.54-2.46,3.34-1.16.79-2.53,1.18-4.1,1.18-1.33,0-2.54-.3-3.62-.9-1.07-.61-1.91-1.46-2.54-2.54-.61-1.08-.92-2.31-.92-3.68ZM73.56,2.47v3.5h4.7v2.22h-4.7v3.7h5.3v2.28h-8.1V.19h8.1v2.28h-5.3ZM86.11,14.3c-.97,0-1.85-.17-2.64-.5-.77-.33-1.39-.81-1.84-1.44s-.69-1.37-.7-2.22h3c.04.57.24,1.03.6,1.36.37.33.88.5,1.52.5s1.17-.15,1.54-.46c.37-.32.56-.73.56-1.24,0-.41-.13-.75-.38-1.02-.25-.27-.57-.47-.96-.62-.37-.16-.89-.33-1.56-.52-.91-.27-1.65-.53-2.22-.78-.56-.27-1.05-.66-1.46-1.18-.4-.53-.6-1.24-.6-2.12,0-.83.21-1.55.62-2.16.41-.61.99-1.08,1.74-1.4C84.08.17,84.93,0,85.89,0,87.33,0,88.5.35,89.39,1.06c.91.69,1.41,1.67,1.5,2.92h-3.08c-.03-.48-.23-.87-.62-1.18-.37-.32-.87-.48-1.5-.48-.55,0-.99.14-1.32.42-.32.28-.48.69-.48,1.22,0,.37.12.69.36.94.25.24.56.44.92.6.37.15.89.32,1.56.52.91.27,1.65.53,2.22.8s1.07.67,1.48,1.2c.41.53.62,1.23.62,2.1,0,.75-.19,1.44-.58,2.08-.39.64-.95,1.15-1.7,1.54-.75.37-1.63.56-2.66.56ZM98.3,14.33c-.97,0-1.85-.17-2.64-.5-.77-.33-1.39-.81-1.84-1.44s-.69-1.37-.7-2.22h3c.04.57.24,1.03.6,1.36.37.33.88.5,1.52.5s1.17-.15,1.54-.46c.37-.32.56-.73.56-1.24,0-.41-.13-.75-.38-1.02-.25-.27-.57-.47-.96-.62-.37-.16-.89-.33-1.56-.52-.91-.27-1.65-.53-2.22-.78-.56-.27-1.05-.66-1.46-1.18-.4-.53-.6-1.24-.6-2.12,0-.83.21-1.55.62-2.16.41-.61.99-1.08,1.74-1.4.75-.33,1.6-.5,2.56-.5,1.44,0,2.61.35,3.5,1.06.91.69,1.41,1.67,1.5,2.92h-3.08c-.03-.48-.23-.87-.62-1.18-.37-.32-.87-.48-1.5-.48-.55,0-.99.14-1.32.42-.32.28-.48.69-.48,1.22,0,.37.12.69.36.94.25.24.56.44.92.6.37.15.89.32,1.56.52.91.27,1.65.53,2.22.8s1.07.67,1.48,1.2c.41.53.62,1.23.62,2.1,0,.75-.19,1.44-.58,2.08-.39.64-.95,1.15-1.7,1.54-.75.37-1.63.56-2.66.56Z"/>
  <path class="st0" d="M30.08,14.18h-3L32.08.18h3l5,14h-3l-3.5-10.5s-3.5,10.5-3.5,10.5Z"/>
  <circle class="st1" cx="106.7" cy="11.68" r="2.5"/>
</svg>